<svg xmlns="http://www.w3.org/2000/svg" width="24" height="24" viewBox="0 0 24 24"><path id="icon" d="M15 5H14V4H15M10 5H9V4H10M15.5 2.2L16.8 0.9C17 0.7 17 0.3 16.8 0.1 16.6 0 16.3 0 16.1 0.1L14.7 1.6C13.9 1.2 13 1 12 1 11 1 10.1 1.2 9.3 1.6L7.9 0.1C7.7 0 7.3 0 7.2 0.1 7 0.3 7 0.7 7.2 0.9L8.5 2.2C7 3.3 6 5 6 7H18C18 5 17 3.3 15.5 2.2M20.5 8A1.5 1.5 0 0 0 19 9.5V16.5A1.5 1.5 0 0 0 20.5 18 1.5 1.5 0 0 0 22 16.5V9.5A1.5 1.5 0 0 0 20.5 8M3.5 8A1.5 1.5 0 0 0 2 9.5V16.5A1.5 1.5 0 0 0 3.5 18 1.5 1.5 0 0 0 5 16.5V9.5A1.5 1.5 0 0 0 3.5 8M6 18A1 1 0 0 0 7 19H8V22.5A1.5 1.5 0 0 0 9.5 24 1.5 1.5 0 0 0 11 22.5V19H13V22.5A1.5 1.5 0 0 0 14.5 24 1.5 1.5 0 0 0 16 22.5V19H17A1 1 0 0 0 18 18V8H6V18Z"/></svg>