<svg xmlns="http://www.w3.org/2000/svg" viewBox="0 0 24 24"><path id="icon" d="M11.3 12.9c0 0-1.3-2.6-1.3-4.5 0-1.3 3.1-2.7 4.3-4.6C15.4 1.9 14.1 0 14.1 0s0.3 1.4-0.5 2.8c-0.8 1.4-3.7 2.3-4.9 4.8C7.6 10.1 11.3 12.9 11.3 12.9zM16.3 5.1c0 0-4.6 1.7-4.6 3.7 0 2 1.2 2.6 1.4 3.3 0.2 0.6-0.3 1.7-0.3 1.7s1.8-1.2 1.5-2.7c-0.3-1.4-1.7-1.9-0.9-3.3C13.9 6.8 16.3 5.1 16.3 5.1zM10.8 15.5c4.2-0.1 5.8-1.5 5.8-1.5 -2.7 0.7-10 0.7-10 0.1 0-0.5 2.2-1 2.2-1s-3.6 0-3.9 0.9C4.6 15 6.5 15.7 10.8 15.5zM16.9 17.6c0 0 4.1-0.9 3.7-3.1 -0.5-2.7-3.4-1.2-3.4-1.2s2 0 2.2 1.2C19.6 15.8 16.9 17.6 16.9 17.6zM14.8 16.4c0 0-1 0.3-2.6 0.4 -2.1 0.2-4.6 0-4.8-0.3 -0.2-0.3 0.3-0.5 0.3-0.5 -2.5 0.6-1.1 1.6 1.8 1.8 2.5 0.2 6.2-0.7 6.2-0.7L14.8 16.4zM8.4 18.6c0 0-1.1 0-1.2 0.6 -0.1 0.6 0.7 1.1 3.5 1.3 2.8 0.2 4.7-0.8 4.7-0.8l-1.3-0.8c0 0-0.8 0.2-2 0.3 -1.2 0.2-3.7-0.1-3.8-0.4C8.2 18.7 8.4 18.6 8.4 18.6zM19.2 21.2c0.4-0.5-0.1-0.8-0.1-0.8s0.2 0.2-0.1 0.5c-0.3 0.3-2.7 0.9-6.5 1.1 -3.9 0.2-8.1-0.4-8.2-0.9 -0.1-0.5 2.2-0.9 2.2-0.9 -0.3 0-3.4 0.1-3.5 1 -0.1 0.9 1.4 1.6 7.3 1.6C16.2 22.8 18.8 21.7 19.2 21.2zM16.9 23.2c-2.6 0.5-10.5 0.2-10.5 0.2s5.2 1.2 11 0.2c2.8-0.5 3-1.9 3-1.9S19.5 22.7 16.9 23.2z"/></svg>