<?xml version="1.0" encoding="utf-8"?>
<!-- Generator: Adobe Illustrator 16.0.0, SVG Export Plug-In . SVG Version: 6.00 Build 0)  -->
<!DOCTYPE svg PUBLIC "-//W3C//DTD SVG 1.1//EN" "http://www.w3.org/Graphics/SVG/1.1/DTD/svg11.dtd">
<svg version="1.1" id="Layer_1" xmlns="http://www.w3.org/2000/svg" xmlns:xlink="http://www.w3.org/1999/xlink" x="0px" y="0px"
	 width="128px" height="128px" viewBox="0 0 128 128" enable-background="new 0 0 128 128" xml:space="preserve">
<g>
	<path fill-rule="evenodd" clip-rule="evenodd" fill="#FFFFFF" d="M52.025,64.05v-0.025L52,64H36l-0.025,0.025v-64L36,0h32.2
		c4.319,0.086,8.328,0.902,12.025,2.45c3.694,1.553,7.078,3.836,10.15,6.85c3.218,3.134,5.635,6.593,7.25,10.375
		c1.602,3.793,2.401,7.91,2.4,12.35c-0.003,4.457-0.811,8.582-2.425,12.375c-1.62,3.783-4.045,7.232-7.275,10.35
		c-3.052,3.014-6.418,5.297-10.1,6.85c-3.693,1.547-7.701,2.363-12.025,2.45H52.025z M79.175,20.8
		c-3.162-3.056-6.938-4.64-11.325-4.75H52.025V48H68c4.32-0.144,8.029-1.727,11.125-4.75l0.05-0.05
		c3.189-3.097,4.789-6.822,4.8-11.175C83.964,27.637,82.364,23.896,79.175,20.8z"/>
	<polygon fill-rule="evenodd" clip-rule="evenodd" fill="#333333" points="35.975,64.025 36,64 52,64 52.025,64.025 52.025,64.05 
		52.025,128.025 52,128.05 36,128.05 35.975,128.025 	"/>
</g>
</svg>
