<?xml version="1.0" encoding="utf-8"?>
<!-- Generator: Adobe Illustrator 16.0.0, SVG Export Plug-In . SVG Version: 6.00 Build 0)  -->
<!DOCTYPE svg PUBLIC "-//W3C//DTD SVG 1.1//EN" "http://www.w3.org/Graphics/SVG/1.1/DTD/svg11.dtd">
<svg version="1.1" id="Layer_1" xmlns="http://www.w3.org/2000/svg" xmlns:xlink="http://www.w3.org/1999/xlink" x="0px" y="0px"
	 width="1088.5px" height="128px" viewBox="0 0 1088.5 128" enable-background="new 0 0 1088.5 128" xml:space="preserve">
<symbol  id="d_x5F_wide" viewBox="-0.025 -64.025 64.05 64.05">
	<path fill-rule="evenodd" clip-rule="evenodd" d="M32.2,0.025c4.319-0.086,8.328-0.903,12.025-2.45
		c3.694-1.553,7.078-3.836,10.15-6.85c3.218-3.134,5.634-6.593,7.25-10.375c1.602-3.792,2.401-7.909,2.4-12.35
		c-0.003-4.456-0.811-8.581-2.425-12.375c-1.62-3.783-4.044-7.232-7.275-10.35c-3.051-3.014-6.417-5.297-10.1-6.85
		c-3.694-1.548-7.702-2.364-12.025-2.45H0L-0.025-64V0L0,0.025H32.2z M43.125-20.775c-3.129,3.056-6.888,4.64-11.275,4.75H16.025
		v-31.95H32c4.32,0.143,8.028,1.726,11.125,4.75l0.05,0.05c3.189,3.096,4.789,6.821,4.8,11.175c-0.015,4.386-1.615,8.127-4.8,11.225
		H43.125z"/>
</symbol>
<symbol  id="e" viewBox="-0.025 -64.025 56.05 64.05">
	<path fill-rule="evenodd" clip-rule="evenodd" d="M56,0.025L56.025,0v-16L56-16.025H32c-4.388-0.011-8.146-1.577-11.275-4.7
		c-0.505-0.507-0.972-1.032-1.4-1.575c-0.425-0.544-0.808-1.103-1.15-1.675H56L56.025-24v-16L56-40.025H18.175
		c0.342-0.572,0.726-1.131,1.15-1.675c0.428-0.543,0.895-1.068,1.4-1.575c3.063-3.056,6.721-4.623,10.975-4.7H56L56.025-48v-16
		L56-64.025H31.45C27.16-63.96,23.176-63.152,19.5-61.6c-3.666,1.565-7.024,3.874-10.075,6.925l-0.05,0.05
		c-3.097,3.085-5.43,6.493-7,10.225c-1.564,3.743-2.364,7.81-2.4,12.2v0.4c0.036,4.39,0.836,8.457,2.4,12.2
		c1.57,3.732,3.903,7.14,7,10.225h0.05c3.123,3.128,6.564,5.478,10.325,7.05c3.763,1.564,7.847,2.347,12.25,2.35H56z"/>
</symbol>
<symbol  id="i" viewBox="-0.025 -64.025 16.05 64.05">
	<polygon fill-rule="evenodd" clip-rule="evenodd" points="16,0.025 16.025,0 16.025,-64 16,-64.025 0,-64.025 -0.025,-64 -0.025,0 
		0,0.025 	"/>
</symbol>
<symbol  id="n" viewBox="-0.025 -64.025 56.05 64.05">
	<polygon fill-rule="evenodd" clip-rule="evenodd" points="18.85,0.025 39.975,-36.625 39.975,0 40,0.025 56,0.025 56.025,0 
		56.025,-64 56,-64.025 37.25,-64.025 16.025,-27.275 16.025,-64 16,-64.025 0,-64.025 -0.025,-64 -0.025,0 0,0.025 	"/>
</symbol>
<symbol  id="r" viewBox="-0.025 -64.025 60.05 64.05">
	<path fill-rule="evenodd" clip-rule="evenodd" d="M36.5,0.025c5.273-0.105,9.814-2.055,13.625-5.85
		c3.928-3.877,5.895-8.602,5.9-14.175c-0.005-5.506-1.956-10.214-5.85-14.125l-0.05-0.05c-1.593-1.595-3.301-2.861-5.125-3.8
		l15.025-26L60-64.025H41.55l-13.875,24h-11.65V-64L16-64.025H0L-0.025-64V0L0,0.025H36.5z M38.775-17.175
		c-0.727,0.729-1.602,1.112-2.625,1.15H16.025v-7.95H31.7l0.525,0.025l0.575-0.025h3.35c0.989,0.039,1.848,0.422,2.575,1.15l0.1,0.1
		c0.761,0.76,1.145,1.669,1.15,2.725c-0.005,1.089-0.389,2.014-1.15,2.775L38.775-17.175z"/>
</symbol>
<symbol  id="t" viewBox="-0.025 -64.025 60.05 64.05">
	<polygon fill-rule="evenodd" clip-rule="evenodd" points="60,0.025 60.025,0 60.025,-16 38.025,-16.025 38.025,-64 38,-64.025 
		22,-64.025 21.975,-64 21.975,-16.025 0,-16.025 -0.025,-16 -0.025,0 0,0.025 	"/>
</symbol>
<symbol  id="v" viewBox="-0.025 -64.025 64.05 64.05">
	<polygon fill-rule="evenodd" clip-rule="evenodd" points="17.4,0.025 32,-35.15 46.625,0.025 64,0.025 64.025,-0.025 
		37.375,-64.025 26.7,-64.025 -0.025,-0.025 0,0.025 	"/>
</symbol>
<radialGradient id="SVGID_1_" cx="426.9492" cy="73" r="414.0891" gradientTransform="matrix(-1 0 0 -0.2706 853.8984 92.7535)" gradientUnits="userSpaceOnUse">
	<stop  offset="0.2627" style="stop-color:#333333"/>
	<stop  offset="1" style="stop-color:#333333;stop-opacity:0"/>
</radialGradient>
<polygon display="none" fill-rule="evenodd" clip-rule="evenodd" fill="url(#SVGID_1_)" points="486.975,54 486.975,138 
	486.95,138.025 -9,138.025 -9.025,138 -9.025,54 -9,53.975 486.95,53.975 "/>
<radialGradient id="SVGID_2_" cx="409.958" cy="78.4482" r="351.447" gradientTransform="matrix(-1 0 0 -0.2706 819.916 99.676)" gradientUnits="userSpaceOnUse">
	<stop  offset="0.2627" style="stop-color:#333333"/>
	<stop  offset="1" style="stop-color:#333333;stop-opacity:0"/>
</radialGradient>
<path fill-rule="evenodd" clip-rule="evenodd" fill="url(#SVGID_2_)" d="M48,63.95h16.051V128h-32.2
	c-4.334-0.066-8.351-0.883-12.05-2.45c-3.667-1.533-7.051-3.816-10.15-6.85c-3.2-3.133-5.616-6.583-7.25-10.35
	C0.801,104.55,0,100.434,0,96c0.034-4.467,0.851-8.6,2.45-12.4c1.634-3.766,4.05-7.217,7.25-10.35c3.066-3,6.434-5.283,10.101-6.85
	c3.338-1.384,6.938-2.184,10.8-2.4c0.41-0.023,0.826-0.04,1.25-0.05h4.2H48z M32.2,111.95H48V80H32.051
	C27.717,80.166,24,81.75,20.9,84.75l-0.05,0.05c-3.167,3.101-4.767,6.833-4.8,11.2c0.033,4.4,1.633,8.134,4.8,11.2h0.05
	C24.034,110.267,27.801,111.851,32.2,111.95z M74.051,111.95h24c4.399,0,8.149-1.566,11.25-4.7c0.533-0.5,1-1.017,1.399-1.55
	c0.434-0.533,0.816-1.1,1.15-1.7H74V88l0.051-0.05h37.8c-0.334-0.567-0.717-1.116-1.15-1.65c-0.399-0.533-0.866-1.066-1.399-1.6
	c-3.034-3.034-6.684-4.601-10.95-4.7H74V64l0.051-0.05h24.55c4.3,0.066,8.283,0.884,11.95,2.45c3.666,1.566,7.017,3.866,10.05,6.899
	l0.05,0.05c3.1,3.101,5.434,6.518,7,10.25c1.566,3.734,2.366,7.801,2.4,12.2v0.4c-0.034,4.4-0.834,8.467-2.4,12.199
	c-1.566,3.734-3.9,7.134-7,10.201h-0.05c-3.101,3.133-6.533,5.482-10.3,7.049c-3.767,1.567-7.851,2.351-12.25,2.351H74v-16
	L74.051,111.95z M132.4,112l22-0.05V64l0.05-0.05h16v48h22V128H132.4V112z M196.351,108c0.033-5.5,1.983-10.217,5.85-14.15
	l0.05-0.05c1.601-1.566,3.317-2.833,5.15-3.8l-15.05-26l0.05-0.05h18.45l13.85,24h11.65V64l0.05-0.05h16V128h-36.5
	c-5.267-0.101-9.816-2.05-13.65-5.851C198.351,118.283,196.384,113.567,196.351,108z M236.351,104H220.7l-0.55,0.05l-0.55-0.05
	h-3.351c-1,0.067-1.866,0.45-2.6,1.149l-0.1,0.101c-0.733,0.767-1.117,1.683-1.15,2.75c0.033,1.101,0.417,2.017,1.15,2.75l0.05,0.05
	c0.733,0.733,1.616,1.117,2.649,1.15h20.101V104z M286.4,111.95c4.399,0,8.149-1.567,11.25-4.7c0.533-0.5,1-1.017,1.399-1.55
	c0.434-0.534,0.817-1.101,1.15-1.7h-37.85V88l0.05-0.05h37.8c-0.333-0.567-0.717-1.116-1.15-1.65
	c-0.399-0.533-0.866-1.066-1.399-1.6c-3.033-3.034-6.684-4.601-10.95-4.7h-24.35V64l0.05-0.05h24.55
	c4.3,0.066,8.283,0.884,11.95,2.45c3.666,1.566,7.017,3.866,10.05,6.899l0.05,0.05c3.101,3.101,5.434,6.518,7,10.25
	c1.566,3.734,2.367,7.801,2.4,12.2v0.4c-0.033,4.399-0.834,8.466-2.4,12.199s-3.899,7.134-7,10.2h-0.05
	c-3.1,3.134-6.533,5.483-10.3,7.05c-3.767,1.567-7.85,2.351-12.25,2.351h-24.05v-16l0.05-0.05H286.4z M315.95,127.95l26.65-64H353.3
	l26.7,64V128h-17.399L348,92.85L333.351,128H316L315.95,127.95z M382.351,128V64l0.05-0.05h18.75l21.2,36.75V64l0.05-0.05h16V128
	h-18.85L398.4,91.35V128H382.351z M450.351,128V64l0.05-0.05h16V128H450.351z"/>
<path fill-rule="evenodd" clip-rule="evenodd" fill="#333333" d="M1045.7,81.15l-0.05,0.05c-0.768,0.767-1.15,1.683-1.15,2.75
	c0,1.1,0.383,2.033,1.15,2.8c0.767,0.767,1.699,1.167,2.8,1.2h20c5.5,0,10.217,1.95,14.149,5.85c3.801,3.8,5.768,8.35,5.9,13.65v1.2
	c-0.2,5.2-2.15,9.683-5.85,13.45l-0.051,0.05c-3.933,3.867-8.649,5.816-14.149,5.85h-40v-16.05h40
	c1.066-0.033,1.983-0.417,2.75-1.15l0.1-0.1c0.733-0.767,1.117-1.683,1.15-2.75c-0.033-1.1-0.434-2.033-1.2-2.8
	c-0.767-0.767-1.7-1.15-2.8-1.15h-20c-5.5-0.033-10.217-2-14.15-5.9c-3.767-3.8-5.717-8.333-5.85-13.6v-1.15
	c0.133-5.233,2.066-9.733,5.8-13.5l0.1-0.1c3.9-3.867,8.601-5.8,14.101-5.8h40.05v16L1048.45,80
	C1047.383,80,1046.467,80.383,1045.7,81.15z M983.3,63.95l21.15,36.65V63.95h16.05v64l-0.05,0.05h-18.75l-21.2-36.75v36.7
	l-0.05,0.05h-16V63.95H983.3z M901.85,73.3c3.101-3.133,6.534-5.483,10.301-7.05c3.767-1.566,7.866-2.333,12.3-2.3
	c4.434-0.033,8.533,0.733,12.3,2.3c3.767,1.567,7.217,3.917,10.35,7.05c3.101,3.133,5.45,6.583,7.051,10.35
	c1.533,3.767,2.316,7.867,2.35,12.3c0,4.433-0.783,8.533-2.35,12.3c-1.567,3.767-3.9,7.217-7,10.35l-0.051,0.05
	c-3.133,3.1-6.583,5.433-10.35,7c-3.767,1.566-7.866,2.35-12.3,2.35c-4.434-0.033-8.533-0.816-12.3-2.35
	c-3.767-1.6-7.217-3.95-10.351-7.05c-3.133-3.133-5.483-6.583-7.05-10.35c-1.566-3.767-2.333-7.867-2.3-12.3
	c-0.033-4.433,0.733-8.533,2.3-12.3c1.566-3.767,3.917-7.2,7.05-10.3L901.85,73.3z M800.45,80h-24c-4.4,0-8.15,1.567-11.25,4.7
	c-3.134,3.1-4.7,6.85-4.7,11.25s1.566,8.167,4.7,11.3c3.033,3.034,6.684,4.6,10.95,4.7h23.899v16L800,128h-24.1
	c-4.301-0.066-8.284-0.883-11.95-2.45c-3.667-1.567-7.017-3.867-10.05-6.9l-0.051-0.05c-3.133-3.133-5.483-6.583-7.05-10.35
	c-1.566-3.767-2.35-7.867-2.35-12.3s0.783-8.533,2.35-12.3c1.566-3.767,3.917-7.2,7.05-10.3h0.051c3.1-3.133,6.533-5.483,10.3-7.05
	c3.767-1.567,7.85-2.35,12.25-2.35h24.05v16L800.45,80z M802.85,80V63.95H862.9v16l-22,0.05v47.95L840.85,128h-16V80H802.85z
	 M935.8,107.25c3.066-3.133,4.617-6.9,4.65-11.3c-0.033-4.433-1.601-8.2-4.7-11.3c-3.1-3.1-6.866-4.65-11.3-4.65
	c-4.4,0-8.15,1.55-11.25,4.65l-0.05,0.05c-3.101,3.1-4.65,6.85-4.65,11.25c0,4.433,1.55,8.2,4.65,11.3c3.1,3.1,6.866,4.667,11.3,4.7
	c4.399-0.033,8.166-1.583,11.3-4.65L935.8,107.25z M884.45,128h-16V63.95h16.05v64L884.45,128z M736.5,63.95v36
	c-0.033,3.867-0.717,7.467-2.05,10.8c-1.4,3.267-3.45,6.284-6.15,9.05c-2.767,2.7-5.783,4.75-9.05,6.15
	c-3.333,1.333-6.934,2.017-10.8,2.05c-3.867,0-7.434-0.683-10.7-2.05c-3.3-1.367-6.316-3.4-9.05-6.1l-0.05-0.05
	c-2.733-2.767-4.784-5.783-6.15-9.05c-1.366-3.333-2.05-6.933-2.05-10.8v-36h16.05v36c0,3.3,1.167,6.133,3.5,8.5
	c2.333,2.3,5.15,3.467,8.45,3.5c3.333-0.033,6.166-1.2,8.5-3.5c2.3-2.333,3.467-5.167,3.5-8.5v-36H736.5z M652.7,66.4
	c3.666,1.533,7.05,3.816,10.149,6.85c3.2,3.133,5.617,6.583,7.25,10.35c1.601,3.8,2.4,7.917,2.4,12.35
	c-0.033,4.467-0.85,8.6-2.45,12.4c-1.633,3.767-4.05,7.217-7.25,10.35c-3.066,3-6.434,5.283-10.1,6.85
	c-3.7,1.533-7.717,2.35-12.05,2.45h-28.2V63.95h28.2C644.983,64.017,649,64.833,652.7,66.4z M651.65,84.75H651.6
	c-3.133-3.066-6.899-4.65-11.3-4.75h-11.8v31.95h11.95c4.333-0.167,8.05-1.75,11.149-4.75l0.051-0.05
	c3.166-3.1,4.767-6.833,4.8-11.2C656.417,91.55,654.816,87.817,651.65,84.75z M584.75,66.25c3.767,1.567,7.217,3.917,10.35,7.05
	c3.101,3.133,5.45,6.583,7.051,10.35c1.533,3.767,2.316,7.867,2.35,12.3c0,4.433-0.783,8.533-2.35,12.3
	c-1.567,3.767-3.9,7.217-7,10.35l-0.051,0.05c-3.133,3.1-6.583,5.433-10.35,7c-3.767,1.566-7.866,2.35-12.3,2.35
	c-4.434-0.033-8.533-0.816-12.3-2.35c-3.767-1.6-7.217-3.95-10.351-7.05c-3.133-3.133-5.483-6.583-7.05-10.35
	c-1.566-3.767-2.333-7.867-2.3-12.3c-0.033-4.433,0.733-8.533,2.3-12.3c1.566-3.767,3.917-7.2,7.05-10.3l0.05-0.05
	c3.101-3.133,6.534-5.483,10.301-7.05c3.767-1.566,7.866-2.333,12.3-2.3C576.884,63.917,580.983,64.684,584.75,66.25z M478.35,64
	h4.2c0.424-0.01,0.84-0.026,1.25-0.05h31.05c5.267,0.1,9.817,2.05,13.65,5.85c3.9,3.867,5.866,8.583,5.9,14.15
	c-0.034,5.5-1.983,10.217-5.851,14.15l-0.05,0.05c-1.6,1.566-3.316,2.833-5.15,3.8l15.051,26L538.35,128H519.9l-13.851-24H494.4
	v23.95L494.35,128h-16V64z M450.35,64H466.4v63.95L466.35,128h-16V64z M517.15,81.15c-0.733-0.733-1.617-1.117-2.65-1.15h-20.1v7.95
	h15.649l0.55-0.05l0.551,0.05h3.35c1-0.067,1.866-0.45,2.6-1.15l0.101-0.1c0.733-0.767,1.116-1.683,1.149-2.75
	c-0.033-1.1-0.416-2.017-1.149-2.75L517.15,81.15z M583.75,84.65c-3.1-3.1-6.866-4.65-11.3-4.65c-4.4,0-8.15,1.55-11.25,4.65
	l-0.05,0.05c-3.101,3.1-4.65,6.85-4.65,11.25c0,4.433,1.55,8.2,4.65,11.3c3.1,3.1,6.866,4.667,11.3,4.7
	c4.399-0.033,8.166-1.583,11.3-4.65l0.05-0.05c3.066-3.133,4.617-6.9,4.65-11.3C588.417,91.517,586.85,87.75,583.75,84.65z"/>
<path fill-rule="evenodd" clip-rule="evenodd" fill="#FFFFFF" d="M466.4,64.05H450.35V0h32.2c4.334,0.067,8.351,0.883,12.05,2.45
	c3.667,1.533,7.051,3.816,10.15,6.85c3.2,3.133,5.616,6.583,7.25,10.35c1.6,3.8,2.4,7.917,2.4,12.35
	c-0.034,4.467-0.851,8.6-2.45,12.4c-1.634,3.767-4.05,7.217-7.25,10.35c-3.066,3-6.434,5.283-10.101,6.85
	c-3.338,1.383-6.938,2.184-10.8,2.4c-0.41,0.023-0.826,0.04-1.25,0.05h-4.2H466.4z M482.2,16.05h-15.8V48h15.949
	c4.334-0.167,8.051-1.75,11.15-4.75l0.05-0.05c3.167-3.1,4.767-6.833,4.8-11.2c-0.033-4.4-1.633-8.133-4.8-11.2h-0.05
	C490.366,17.733,486.6,16.15,482.2,16.05z M440.35,16.05h-24c-4.399,0-8.149,1.567-11.25,4.7c-0.533,0.5-1,1.017-1.399,1.55
	c-0.434,0.534-0.816,1.1-1.15,1.7H440.4v16l-0.051,0.05h-37.8c0.334,0.567,0.717,1.117,1.15,1.65c0.399,0.533,0.866,1.066,1.399,1.6
	c3.034,3.034,6.684,4.6,10.95,4.7H440.4v16l-0.051,0.05H415.8c-4.3-0.066-8.283-0.883-11.95-2.45
	c-3.666-1.567-7.017-3.867-10.05-6.9l-0.05-0.05c-3.1-3.1-5.434-6.517-7-10.25s-2.366-7.8-2.4-12.2v-0.4
	c0.034-4.4,0.834-8.466,2.4-12.2s3.9-7.133,7-10.2h0.05c3.101-3.133,6.533-5.483,10.3-7.05C407.866,0.783,411.95,0,416.35,0H440.4
	v16L440.35,16.05z M382,16l-22,0.05V64l-0.05,0.05h-16v-48h-22V0H382V16z M318.05,20c-0.033,5.5-1.983,10.217-5.85,14.15l-0.05,0.05
	c-1.601,1.566-3.317,2.833-5.15,3.8l15.05,26L322,64.05h-18.45l-13.85-24h-11.65V64L278,64.05h-16V0h36.5
	c5.267,0.1,9.816,2.05,13.65,5.85C316.05,9.717,318.017,14.433,318.05,20z M278.05,24h15.65l0.55-0.05L294.8,24h3.351
	c1-0.067,1.866-0.45,2.6-1.15l0.1-0.1c0.733-0.767,1.117-1.683,1.15-2.75c-0.033-1.1-0.417-2.017-1.15-2.75l-0.05-0.05
	c-0.733-0.733-1.616-1.117-2.649-1.15H278.05V24z M228,16.05c-4.4,0-8.15,1.567-11.25,4.7c-0.533,0.5-1,1.017-1.4,1.55
	c-0.434,0.534-0.817,1.1-1.15,1.7h37.85v16L252,40.05h-37.8c0.333,0.567,0.716,1.117,1.15,1.65c0.4,0.533,0.867,1.066,1.4,1.6
	c3.033,3.034,6.683,4.6,10.95,4.7h24.35v16L252,64.05h-24.55c-4.3-0.066-8.284-0.883-11.95-2.45c-3.667-1.567-7.017-3.867-10.05-6.9
	l-0.05-0.05c-3.1-3.1-5.433-6.517-7-10.25c-1.566-3.733-2.367-7.8-2.4-12.2v-0.4c0.033-4.4,0.833-8.466,2.4-12.2
	c1.567-3.733,3.9-7.133,7-10.2h0.05c3.1-3.133,6.533-5.483,10.3-7.05C219.517,0.783,223.6,0,228,0h24.05v16L252,16.05H228z
	 M198.45,0.05l-26.65,64h-10.7l-26.7-64V0h17.4l14.6,35.15L181.05,0h17.35L198.45,0.05z M132.05,0v64L132,64.05h-18.75L92.05,27.3
	V64L92,64.05H76V0h18.85L116,36.65V0H132.05z M64.05,0v64L64,64.05H48V0H64.05z"/>
</svg>
