<?xml version="1.0" encoding="utf-8"?>
<!-- Generator: Adobe Illustrator 16.0.0, SVG Export Plug-In . SVG Version: 6.00 Build 0)  -->
<!DOCTYPE svg PUBLIC "-//W3C//DTD SVG 1.1//EN" "http://www.w3.org/Graphics/SVG/1.1/DTD/svg11.dtd">
<svg version="1.1" id="Layer_1" xmlns="http://www.w3.org/2000/svg" xmlns:xlink="http://www.w3.org/1999/xlink" x="0px" y="0px"
	 width="316.15px" height="128px" viewBox="0 0 316.15 128" enable-background="new 0 0 316.15 128" xml:space="preserve">
<path fill-rule="evenodd" clip-rule="evenodd" fill="#333333" d="M316.15,95.95c-0.034,4.467-0.851,8.6-2.45,12.4
	c-1.634,3.767-4.05,7.217-7.25,10.35c-3.066,3-6.434,5.283-10.101,6.85c-3.699,1.533-7.716,2.35-12.05,2.45h-28.2V63.95h28.2
	c4.334,0.067,8.351,0.883,12.05,2.45c3.667,1.533,7.051,3.816,10.15,6.85c3.2,3.133,5.616,6.583,7.25,10.35
	C315.35,87.4,316.15,91.517,316.15,95.95z M238.75,73.3c3.1,3.133,5.45,6.583,7.05,10.35c1.534,3.767,2.317,7.867,2.35,12.3
	c0,4.433-0.783,8.533-2.35,12.3c-1.566,3.767-3.9,7.217-7,10.35l-0.05,0.05c-3.133,3.1-6.583,5.433-10.35,7
	c-3.767,1.566-7.867,2.35-12.3,2.35c-4.434-0.033-8.533-0.816-12.3-2.35c-3.767-1.6-7.216-3.95-10.35-7.05
	c-3.133-3.133-5.483-6.583-7.05-10.35c-1.566-3.767-2.333-7.867-2.3-12.3c-0.033-4.433,0.733-8.533,2.3-12.3
	c1.567-3.767,3.917-7.2,7.05-10.3l0.05-0.05c3.1-3.133,6.533-5.483,10.3-7.05c3.767-1.566,7.867-2.333,12.3-2.3
	c4.433-0.033,8.533,0.733,12.3,2.3C232.167,67.817,235.617,70.167,238.75,73.3z M272.15,80v31.95H284.1
	c4.334-0.167,8.051-1.75,11.15-4.75l0.05-0.05c3.167-3.1,4.767-6.833,4.8-11.2c-0.033-4.4-1.633-8.133-4.8-11.2h-0.05
	c-3.134-3.066-6.9-4.65-11.3-4.75H272.15z M94,63.95h16.05V64v63.95L110,128H94V63.95z M122,64v-0.05h5.45h31.05
	c5.267,0.1,9.817,2.05,13.65,5.85c3.9,3.867,5.867,8.583,5.9,14.15c-0.033,5.5-1.983,10.217-5.85,14.15l-0.05,0.05
	c-1.6,1.566-3.316,2.833-5.15,3.8l15.05,26L182,128h-18.45l-13.85-24h-11.65v23.95L138,128h-16V64z M158.15,80h-20.1v7.95h15.65
	l0.55-0.05l0.55,0.05h3.35c1-0.067,1.867-0.45,2.6-1.15l0.1-0.1c0.733-0.767,1.117-1.683,1.15-2.75
	c-0.033-1.1-0.417-2.017-1.15-2.75l-0.05-0.05C160.067,80.417,159.183,80.034,158.15,80z M204.8,84.7c-3.1,3.1-4.65,6.85-4.65,11.25
	c0,4.433,1.55,8.2,4.65,11.3c3.1,3.1,6.867,4.667,11.3,4.7c4.4-0.033,8.167-1.583,11.3-4.65l0.05-0.05
	c3.066-3.133,4.617-6.9,4.65-11.3c-0.033-4.433-1.6-8.2-4.7-11.3c-3.1-3.1-6.867-4.65-11.3-4.65c-4.4,0-8.15,1.55-11.25,4.65
	L204.8,84.7z"/>
<path fill-rule="evenodd" clip-rule="evenodd" fill="#FFFFFF" d="M127.45,64H122v0.05h-11.95V64H94V0h32.2
	c4.333,0.067,8.35,0.883,12.05,2.45c3.667,1.533,7.05,3.816,10.15,6.85c3.2,3.133,5.617,6.583,7.25,10.35
	c1.6,3.8,2.4,7.917,2.4,12.35c-0.033,4.467-0.85,8.6-2.45,12.4c-1.633,3.767-4.05,7.217-7.25,10.35c-3.067,3-6.434,5.283-10.1,6.85
	C134.912,62.983,131.312,63.784,127.45,64z M125.85,16.05h-15.8V48H126c4.333-0.167,8.05-1.75,11.15-4.75l0.05-0.05
	c3.167-3.1,4.767-6.833,4.8-11.2c-0.033-4.4-1.633-8.133-4.8-11.2h-0.05C134.017,17.733,130.25,16.15,125.85,16.05z M84.05,0v64
	L84,64.05H65.25L44.05,27.3V64L44,64.05H28V0h18.85L68,36.65V0H84.05z M16.05,0v64L16,64.05H0V0H16.05z"/>
</svg>
